#N canvas 0 30 681 503 10;
#X obj 115 504 outlet;
#X obj 307 312 sdPack index;
#X obj 319 427 sdList;
#X obj 307 335 t b a, f 14;
#X obj 102 348 sdPack index;
#X obj 102 371 t b a, f 16;
#X obj 115 458 sdList;
#X msg 117 418 clear;
#X obj 82 77 t a b, f 6;
#X obj 319 474 outlet;
#X obj 82 50 inlet;
#X obj 82 102 sdUnEvent index;
#X obj 102 294 - 0;
#X obj 48 173 t f;
#X obj 127 76 s \$0-init;
#X obj 117 395 r \$0-init;
#X msg 321 382 clear;
#X obj 321 359 r \$0-init;
#X obj 125 126 s \$0-otherParams;
#X obj 170 435 r \$0-otherParams;
#X obj 369 409 r \$0-otherParams;
#X obj 185 106 s \$0-eventType;
#X obj 199 480 r \$0-eventType;
#X obj 397 442 r \$0-eventType;
#X obj 280 125 sdFloatBang \$1;
#X obj 386 147 sdFloatBang \$2;
#X obj 319 451 sdPack event;
#X obj 115 481 sdPack event;
#X obj 320 255 expr $f1 - $f2;
#X obj 337 200 + 0;
#X obj 343 174 t b f;
#X obj 102 187 moses, f 16;
#X obj 218 226 moses, f 17;
#X obj 345 34 inlet;
#X obj 536 34 inlet;
#X obj 102 317 + 0;
#X obj 134 294 sdFloatBang \$3;
#X text 509 255 \$1: start_index \; \$2: count_index \; \$3: add to
index \;;
#X connect 1 0 3 0;
#X connect 2 0 26 0;
#X connect 3 0 2 0;
#X connect 3 1 2 1;
#X connect 4 0 5 0;
#X connect 5 0 6 0;
#X connect 5 1 6 1;
#X connect 6 0 27 0;
#X connect 7 0 6 0;
#X connect 8 0 11 0;
#X connect 8 1 14 0;
#X connect 10 0 8 0;
#X connect 11 0 31 0;
#X connect 11 1 18 0;
#X connect 11 2 21 0;
#X connect 12 0 35 0;
#X connect 13 0 12 1;
#X connect 15 0 7 0;
#X connect 16 0 2 0;
#X connect 17 0 16 0;
#X connect 19 0 6 1;
#X connect 20 0 2 1;
#X connect 22 0 27 1;
#X connect 23 0 26 1;
#X connect 24 0 13 0;
#X connect 24 0 29 0;
#X connect 24 0 31 1;
#X connect 25 0 30 0;
#X connect 25 0 28 1;
#X connect 26 0 9 0;
#X connect 27 0 0 0;
#X connect 28 0 1 0;
#X connect 29 0 32 1;
#X connect 30 0 29 0;
#X connect 30 1 29 1;
#X connect 31 0 1 0;
#X connect 31 1 32 0;
#X connect 32 0 12 0;
#X connect 32 1 28 0;
#X connect 33 0 24 0;
#X connect 34 0 25 0;
#X connect 35 0 4 0;
#X connect 36 0 35 1;
