#N canvas 0 30 762 722 10;
#X obj 46 29 nbx 2 14 0 1e+37 0 0 \$0-mode \$0-mode_rcv empty 0 -8
0 10 -262144 -1 -1 0 256;
#X text 10 27 mode:;
#X obj 293 257 sdPackFilter mode;
#X obj 293 280 sdUnPack;
#X obj 293 303 s \$0-mode_rcv;
#X obj 293 234 sdObjTrack mode;
#X obj 436 32 inlet;
#X obj 246 212 t a a;
#X obj 246 235 outlet;
#X obj 89 42 tgl 10 0 \$0-print_msgs empty empty 17 7 0 10 -262144
-1 -1 0 1;
#X text 100 38 print msgs;
#X obj 304 189 r \$0-print_msgs;
#N canvas 0 30 762 722 print 0;
#X obj 67 163 print;
#X obj 67 139 sdGate;
#X obj 40 114 t a a;
#X obj 35 38 inlet;
#X obj 40 187 outlet;
#X obj 121 30 inlet;
#X connect 1 0 0 0;
#X connect 2 0 4 0;
#X connect 2 1 1 0;
#X connect 3 0 2 0;
#X connect 5 0 1 1;
#X coords 0 722 1 721 27 19 0;
#X restore 246 189 pd print;
#X obj 89 30 tgl 10 0 \$0-print_raw empty empty 17 7 0 10 -262144 -1
-1 0 1;
#X text 100 26 print raw;
#N canvas 0 30 762 722 print 0;
#X obj 67 163 print;
#X obj 67 139 sdGate;
#X obj 40 114 t a a;
#X obj 35 38 inlet;
#X obj 40 187 outlet;
#X obj 121 30 inlet;
#X connect 1 0 0 0;
#X connect 2 0 4 0;
#X connect 2 1 1 0;
#X connect 3 0 2 0;
#X connect 5 0 1 1;
#X coords 0 722 1 721 27 19 0;
#X restore 550 145 pd print;
#X obj 608 145 r \$0-print_raw;
#X obj 401 91 sdKeyboardModes_obj \$1 \$2;
#X obj 550 168 outlet;
#X connect 2 0 3 0;
#X connect 3 0 4 0;
#X connect 5 0 2 0;
#X connect 6 0 17 0;
#X connect 7 0 8 0;
#X connect 7 1 5 0;
#X connect 11 0 12 1;
#X connect 12 0 7 0;
#X connect 15 0 18 0;
#X connect 16 0 15 1;
#X connect 17 0 12 0;
#X connect 17 1 15 0;
#X coords 0 -1 1 1 160 46 1 10 10;
