#N canvas 0 30 762 722 10;
#X obj 380 316 s \$0-fromObj;
#X obj 273 41 r \$0-fromObj;
#X obj 273 64 list;
#N canvas 0 30 803 722 init 0;
#X obj 114 320 sdPackFromHuman;
#X obj 115 150 t b b;
#X obj 114 343 sdPack modei;
#X obj 238 93 t b b;
#X msg 733 209 clear;
#X obj 114 367 sdSetSelector append;
#X obj 198 518 outlet;
#X obj 70 18 inlet;
#X obj 198 429 sdData;
#X obj 70 41 t b b;
#X obj 50 375 t b;
#X msg 142 172 list out_vol ( #[ ( any=[ * =] ) ( Print ( $ ( any )
) Out ( list ) ) #] );
#X connect 0 0 2 0;
#X connect 1 1 11 0;
#X connect 2 0 5 0;
#X connect 3 0 1 0;
#X connect 3 1 4 0;
#X connect 4 0 8 0;
#X connect 5 0 8 0;
#X connect 7 0 9 0;
#X connect 8 0 6 0;
#X connect 9 0 10 0;
#X connect 9 1 3 0;
#X connect 10 0 8 0;
#X connect 11 0 0 0;
#X restore 97 192 pd init;
#X obj 508 270 r \$0-mode_count;
#X msg 508 293 mode_count \$1;
#X obj 97 238 list trim;
#X obj 106 122 sdEventToProperties;
#X obj 97 146 route init;
#X obj 97 169 t b;
#X obj 63 29 inlet;
#X obj 99 633 s \$0-send;
#X obj 187 325 loadbang;
#X obj 99 456 sdPackMatch mode mode_count;
#X msg 227 413 set mode_count \$1;
#X obj 227 390 r \$0-mode_count;
#N canvas 0 30 762 722 ctrl 0;
#X obj 32 72 sdPackFilter mode;
#X obj 26 10 inlet;
#X obj 119 665 outlet;
#X obj 295 180 sdData get;
#X msg 277 143 get \$1;
#X obj 295 203 t a b;
#X msg 346 397 clear;
#X obj 190 345 sdUnPack;
#X obj 178 372 list prepend;
#X obj 178 395 sdSetSelector add_script;
#X obj 164 423 sdPackMatch;
#X obj 277 121 f;
#X obj 306 98 t b a;
#X obj 264 253 sdUnPack;
#X obj 222 302 sdData;
#X obj 264 275 sdSetSelector set;
#X obj 235 227 t b a;
#X msg 195 264 serialize;
#X text 412 24 sdData \, where every sdPack has this format:;
#X text 422 42 modeI ( script_name ( #[ ( ...pattern... ) ( ...script...
) #] ) ... );
#X text 481 71 (several scripts per mode);
#X obj 316 20 inlet;
#X obj 342 146 sdSetSelector set;
#X obj 221 18 inlet;
#X connect 0 1 10 0;
#X connect 1 0 0 0;
#X connect 3 0 5 0;
#X connect 4 0 3 0;
#X connect 5 0 16 0;
#X connect 5 1 6 0;
#X connect 6 0 10 0;
#X connect 7 0 8 0;
#X connect 7 2 8 1;
#X connect 8 0 9 0;
#X connect 9 0 10 0;
#X connect 10 0 2 0;
#X connect 11 0 4 0;
#X connect 12 0 11 0;
#X connect 12 1 22 0;
#X connect 13 0 15 0;
#X connect 14 0 7 0;
#X connect 15 0 14 0;
#X connect 16 0 17 0;
#X connect 16 1 13 0;
#X connect 17 0 14 0;
#X connect 21 0 12 0;
#X connect 22 0 3 0;
#X connect 23 0 11 0;
#X restore 99 610 pd ctrl event -> musical event;
#X obj 505 492 s \$0-mode_count;
#X floatatom 191 412 5 0 0 0 - - -;
#X obj 223 88 sdObjState \$1 \$2;
#N canvas 0 30 762 722 meta->mode 0;
#X obj 60 675 outlet;
#X obj 263 161 inlet;
#X obj 263 184 t b b, f 75;
#X msg 709 584 clear;
#X obj 263 207 t b b;
#X msg 115 448 add_script non_meta ( any=[ * =] ) ( If ( != ( Pack_Type
( $ ( any ) ) meta ) Print ( bla ) Out ( ) ) ), f 67;
#X msg 282 291 add_script meta ( meta ( index ( 0 ) ) ) ( = ( mode
% ( + ( 1 $ ( mode ) ) $ ( mode_count ) ) ) Print ( Pack ( mode $ (
mode ) ) ) Out ( list ) ) \, add_script meta ( meta ( index ( 1 ) )
) ( = ( mode % ( + ( - ( $ ( mode_count ) 1 ) $ ( mode ) ) $ ( mode_count
) ) ) Print ( Pack ( mode $ ( mode ) ) ) Out ( list ) );
#X connect 1 0 2 0;
#X connect 2 0 4 0;
#X connect 2 1 3 0;
#X connect 3 0 0 0;
#X connect 4 1 6 0;
#X connect 6 0 0 0;
#X restore 187 355 pd meta->mode;
#X obj 264 330 bng 15 250 50 0 empty empty empty 17 7 0 10 -262144
-1 -1;
#X msg 167 14 list init 0;
#X obj 362 52 r \$0-send;
#X obj 48 693 outlet;
#X obj 72 434 t a a;
#X obj 99 479 sdPackFilter mode;
#X obj 99 502 sdUnPack;
#X obj 7 586 sdPackFilter meta;
#X obj 368 223 sdPropertyList modes \$0;
#X obj 516 397 r \$0-modes;
#X obj 276 587 r \$0-modes;
#X obj 97 215 list prepend set modes;
#X obj 522 240 sdProperty mode \$0;
#X obj 354 389 r \$0-mode;
#X msg 354 412 set mode \$1;
#X floatatom 433 415 5 0 0 0 - - -;
#X obj 99 548 s \$0-mode_rcv;
#X obj 505 469 sdData count;
#X msg 492 443 count;
#X obj 516 422 t b a;
#X obj 543 445 sdSetSelector set;
#X obj 563 687 outlet;
#X obj 48 670 r \$0-obj.out;
#X obj 318 114 s \$0-obj.out;
#X obj 36 350 s \$0-raw.out;
#X obj 554 646 r \$0-raw.out;
#X obj 9 327 t a a;
#X msg 99 525 priv.set \$1;
#X obj 360 529 r \$0-mode;
#X floatatom 367 551 5 0 0 0 - - -;
#X obj 9 304 sdKeyboardEvents;
#X connect 1 0 2 0;
#X connect 2 0 19 1;
#X connect 3 0 32 0;
#X connect 4 0 5 0;
#X connect 5 0 0 0;
#X connect 6 0 29 0;
#X connect 7 0 8 0;
#X connect 8 0 9 0;
#X connect 9 0 3 0;
#X connect 10 0 19 0;
#X connect 12 0 20 0;
#X connect 13 0 26 0;
#X connect 14 0 13 0;
#X connect 15 0 14 0;
#X connect 15 0 18 0;
#X connect 16 0 11 0;
#X connect 19 0 7 0;
#X connect 19 1 29 0;
#X connect 19 2 44 0;
#X connect 20 0 13 0;
#X connect 21 0 20 0;
#X connect 22 0 19 0;
#X connect 23 0 19 2;
#X connect 25 0 28 0;
#X connect 25 1 13 0;
#X connect 26 0 27 0;
#X connect 27 0 48 0;
#X connect 28 1 16 0;
#X connect 29 0 0 0;
#X connect 29 1 33 0;
#X connect 30 0 40 0;
#X connect 31 0 16 2;
#X connect 32 0 6 0;
#X connect 33 0 0 0;
#X connect 34 0 35 0;
#X connect 34 0 36 0;
#X connect 35 0 13 0;
#X connect 38 0 17 0;
#X connect 39 0 38 0;
#X connect 40 0 39 0;
#X connect 40 1 41 0;
#X connect 41 0 38 0;
#X connect 43 0 24 0;
#X connect 46 0 42 0;
#X connect 47 0 25 0;
#X connect 47 1 45 0;
#X connect 48 0 37 0;
#X connect 49 0 50 0;
#X connect 49 0 16 1;
#X connect 51 0 47 0;
