#N canvas 0 30 681 722 10;
#X floatatom 115 380 3 0 0 0 - - -;
#X obj 105 354 keyname;
#X symbolatom 159 381 10 0 0 0 - - -;
#X obj 210 478 loadbang;
#N canvas 0 30 681 722 msg->event 0;
#X obj 60 675 outlet;
#X obj 263 161 inlet;
#X msg 276 282 clear \, add key ?value ?symbol;
#X connect 1 0 2 0;
#X connect 2 0 0 0;
#X restore 210 508 pd msg->event;
#X obj 174 538 sdPackMatch;
#X obj 105 407 pack f s;
#X obj 174 561 outlet;
#X connect 1 0 0 0;
#X connect 1 0 6 0;
#X connect 1 1 2 0;
#X connect 1 1 6 1;
#X connect 3 0 4 0;
#X connect 4 0 5 0;
#X connect 5 0 7 0;
#X connect 6 0 5 0;
