#N canvas 0 30 681 722 10;
#X obj 85 601 sdPackMatch;
#X obj 208 678 outlet;
#X obj 85 452 pack f f;
#X obj 85 398 notein \$1;
#X obj 88 358 noteout \$2;
#X obj 88 256 inlet;
#X obj 88 279 sdUnEvent pitch volume channel;
#X obj 85 479 sdGate;
#X obj 182 431 != 0;
#X obj 247 454 sdSymbolIsEq;
#X obj 220 431 t s s;
#X obj 217 480 sdGate;
#X obj 217 526 symbol note;
#X msg 121 565 clear \, add \$1 ?pitch ?volume;
#X obj 315 613 sdPackMatch;
#X obj 470 466 sdSymbolIsEq;
#X obj 443 443 t s s;
#X obj 440 492 sdGate;
#X obj 440 545 symbol note;
#X msg 351 577 clear \, add \$1 ?pitch ?volume;
#X obj 217 503 t b;
#X obj 440 515 t b;
#X obj 221 408 sdSymbolBang \$3;
#X obj 443 420 sdSymbolBang \$4;
#X obj 130 429 / 127;
#X obj 124 304 * 127;
#X obj 124 327 int;
#X connect 0 0 1 0;
#X connect 2 0 7 0;
#X connect 3 0 2 0;
#X connect 3 1 8 0;
#X connect 3 1 24 0;
#X connect 5 0 6 0;
#X connect 6 0 4 0;
#X connect 6 1 25 0;
#X connect 6 2 4 2;
#X connect 7 0 0 0;
#X connect 7 1 14 0;
#X connect 8 0 7 1;
#X connect 9 0 11 1;
#X connect 10 0 11 0;
#X connect 10 1 9 0;
#X connect 11 0 20 0;
#X connect 11 1 13 0;
#X connect 12 0 13 0;
#X connect 13 0 0 0;
#X connect 14 0 1 0;
#X connect 15 0 17 1;
#X connect 16 0 17 0;
#X connect 16 1 15 0;
#X connect 17 0 21 0;
#X connect 17 1 19 0;
#X connect 18 0 19 0;
#X connect 19 0 14 0;
#X connect 20 0 12 0;
#X connect 21 0 18 0;
#X connect 22 0 10 0;
#X connect 23 0 16 0;
#X connect 24 0 2 1;
#X connect 25 0 26 0;
#X connect 26 0 4 1;
