#N canvas 0 30 681 345 10;
#X obj 210 478 loadbang;
#X obj 174 538 sdPackMatch;
#X obj 174 561 outlet;
#X obj 85 422 pack f f;
#X obj 85 398 notein \$1;
#X msg 210 502 clear \, add note ?pitch ?volume;
#X obj 88 358 noteout \$2;
#X obj 88 256 inlet;
#X obj 88 279 sdUnEvent pitch volume channel;
#X connect 0 0 5 0;
#X connect 1 0 2 0;
#X connect 3 0 1 0;
#X connect 4 0 3 0;
#X connect 4 1 3 1;
#X connect 5 0 1 0;
#X connect 7 0 8 0;
#X connect 8 0 6 0;
#X connect 8 1 6 1;
#X connect 8 2 6 2;
