#N canvas 0 30 721 722 10;
#X obj 37 37 inlet;
#X obj 37 60 sdPackFilter analog;
#X obj 37 83 sdUnEvent index value;
#X obj 37 363 sdPack set_num_by_ind_in_range;
#X obj 37 115 pack;
#X obj 174 450 outlet;
#X obj 373 265 sdPackFilter meta;
#X obj 409 298 loadbang;
#N canvas 0 30 721 722 meta->mode 0;
#X obj 60 675 outlet;
#X obj 53 172 inlet;
#X obj 62 330 t b b;
#X obj 102 255 t b b;
#X msg 130 287 clear;
#X msg 125 510 add_script inc_dest ( meta ( index ( 2 ) value ( 127
) ) ) ( = ( dest_index % ( + ( 1 $ ( dest_index ) ) $ ( dest_count
) ) ) Print ( Pack ( set Pack ( destIndex $ ( dest_index ) ) ) ) Out
( list ) ) \, add_script dec_dest ( meta ( index ( 3 ) value ( 127
) ) ) ( = ( dest_index % ( + ( - ( $ ( dest_count ) 1 ) $ ( dest_index
) ) $ ( dest_count ) ) ) Print ( Pack ( set Pack ( destIndex $ ( dest_index
) ) ) ) Out ( list ) );
#X msg 60 386 add_script inc_group ( meta ( index ( 0 ) value ( 127
) ) ) ( = ( group_index % ( + ( 1 $ ( group_index ) ) $ ( group_count
) ) ) Print ( Pack ( set Pack ( groupIndex $ ( group_index ) ) ) )
Out ( list ) ) \, add_script dec_group ( meta ( index ( 1 ) value (
127 ) ) ) ( = ( group_index % ( + ( - ( $ ( group_count ) 1 ) $ ( group_index
) ) $ ( group_count ) ) ) Print ( Pack ( set Pack ( groupIndex $ (
group_index ) ) ) ) Out ( list ) );
#X connect 1 0 3 0;
#X connect 2 0 6 0;
#X connect 2 1 5 0;
#X connect 3 0 2 0;
#X connect 3 1 4 0;
#X connect 4 0 0 0;
#X connect 5 0 0 0;
#X connect 6 0 0 0;
#X restore 409 328 pd meta->mode;
#X obj 386 295 bng 15 250 50 0 empty empty empty 17 7 0 10 -262144
-1 -1;
#X obj 571 325 loadbang;
#X obj 606 349 r \$0-group_count;
#X msg 571 372 set group_count \$1;
#X msg 571 348 1;
#X obj 560 245 loadbang;
#X msg 560 268 1;
#X obj 595 269 r \$0-obj_count;
#X obj 391 412 sdPackMatch group_index group_count dest_count dest_index
, f 35;
#X msg 559 292 set dest_count \$1;
#X obj 489 73 sdObjTrack groups;
#X obj 489 96 sdUnPack;
#X obj 489 119 list length;
#X obj 489 144 s \$0-group_count;
#X obj 605 96 sdUnPack;
#X obj 605 119 list length;
#X obj 605 73 sdObjTrack objs;
#X obj 605 144 s \$0-obj_count;
#X obj 542 34 inlet;
#X obj 119 115 sdPackFilter trigger;
#X obj 119 164 sdFilter 0;
#X obj 119 140 sdUnEvent value index;
#X obj 174 225 f;
#X obj 156 195 t b;
#X obj 105 336 sdPack send_event_by_ind;
#X obj 269 115 sdPackFilter switch;
#X obj 269 139 sdUnEvent index value;
#X obj 269 166 pack;
#X obj 269 190 sdPack set_bool_by_ind;
#X connect 0 0 1 0;
#X connect 1 0 2 0;
#X connect 1 1 28 0;
#X connect 2 0 4 0;
#X connect 2 1 4 1;
#X connect 3 0 5 0;
#X connect 4 0 3 0;
#X connect 6 0 17 0;
#X connect 7 0 8 0;
#X connect 8 0 17 0;
#X connect 9 0 8 0;
#X connect 10 0 13 0;
#X connect 11 0 12 0;
#X connect 12 0 17 0;
#X connect 13 0 12 0;
#X connect 14 0 15 0;
#X connect 15 0 18 0;
#X connect 16 0 18 0;
#X connect 17 0 5 0;
#X connect 18 0 17 0;
#X connect 19 0 20 0;
#X connect 20 0 21 0;
#X connect 21 0 22 0;
#X connect 23 0 24 0;
#X connect 24 0 26 0;
#X connect 25 0 23 0;
#X connect 27 0 19 0;
#X connect 27 0 25 0;
#X connect 28 0 30 0;
#X connect 28 1 34 0;
#X connect 29 1 32 0;
#X connect 30 0 29 0;
#X connect 30 1 31 1;
#X connect 31 0 33 0;
#X connect 32 0 31 0;
#X connect 33 0 5 0;
#X connect 34 0 35 0;
#X connect 34 1 6 0;
#X connect 35 0 36 0;
#X connect 35 1 36 1;
#X connect 36 0 37 0;
#X connect 37 0 5 0;
