#N canvas 0 30 681 722 10;
#X obj 89 99 midiin;
#X obj 96 446 loadbang;
#N canvas 0 30 681 722 msg->event 0;
#X obj 60 675 outlet;
#X obj 263 161 inlet;
#X msg 276 282 clear \, add trigger trigger ?index ?value \, add switch
switch ?index ?value \, add analog analog ?index ?value \, add meta
meta ?index ?value;
#X connect 1 0 2 0;
#X connect 2 0 0 0;
#X restore 96 476 pd msg->event;
#X obj 60 506 sdPackMatch;
#X obj 60 529 outlet;
#X obj 89 237 sdGate;
#X obj 122 191 sdFloatBang \$1;
#X obj 89 263 sgDevice2;
#X obj 155 262 sgDevice;
#X obj 122 214 expr $f1 == 2 || $f1 == 0;
#X obj 196 165 inlet;
#X obj 89 145 sdGate;
#X obj 293 99 sdFloatBang \$2;
#X obj 122 122 expr ($f2==0) || ($f1 == $f2);
#X connect 0 0 11 0;
#X connect 0 1 13 0;
#X connect 1 0 2 0;
#X connect 2 0 3 0;
#X connect 3 0 4 0;
#X connect 5 0 7 0;
#X connect 5 1 8 0;
#X connect 6 0 9 0;
#X connect 7 0 3 0;
#X connect 8 0 3 0;
#X connect 9 0 5 1;
#X connect 10 0 6 0;
#X connect 11 0 5 0;
#X connect 12 0 13 1;
#X connect 13 0 11 1;
