#N canvas 0 0 798 854 10;
#X obj 22 75 list trim;
#X obj 115 378 bng 15 250 50 0 empty empty empty 17 7 0 10 #fcfcfc
#000000 #000000;
#X obj 154 378 bng 15 250 50 0 empty empty empty 17 7 0 10 #fcfcfc
#000000 #000000;
#X obj 190 378 bng 15 250 50 0 empty empty empty 17 7 0 10 #fcfcfc
#000000 #000000;
#X obj 228 378 bng 15 250 50 0 empty empty empty 17 7 0 10 #fcfcfc
#000000 #000000;
#X obj 265 378 bng 15 250 50 0 empty empty empty 17 7 0 10 #fcfcfc
#000000 #000000;
#X obj 303 379 bng 15 250 50 0 empty empty empty 17 7 0 10 #fcfcfc
#000000 #000000;
#X obj 418 240 bng 15 250 50 0 empty empty empty 17 7 0 10 #fcfcfc
#000000 #000000;
#X obj 438 240 bng 15 250 50 0 empty empty empty 17 7 0 10 #fcfcfc
#000000 #000000;
#X obj 418 261 bng 15 250 50 0 empty empty empty 17 7 0 10 #fcfcfc
#000000 #000000;
#X obj 105 219 tgl 15 0 empty empty empty 17 7 0 10 #fcfcfc #000000
#000000 0 1;
#X obj 122 219 tgl 15 0 empty empty empty 17 7 0 10 #fcfcfc #000000
#000000 0 1;
#X obj 145 219 tgl 15 0 empty empty empty 17 7 0 10 #fcfcfc #000000
#000000 0 1;
#X obj 162 219 tgl 15 0 empty empty empty 17 7 0 10 #fcfcfc #000000
#000000 0 1;
#X obj 183 219 tgl 15 0 empty empty empty 17 7 0 10 #fcfcfc #000000
#000000 0 1;
#X obj 200 219 tgl 15 0 empty empty empty 17 7 0 10 #fcfcfc #000000
#000000 0 1;
#X obj 58 125 route analog;
#X obj 450 139 route meta;
#X obj 23 98 route trigger;
#X obj 252 141 route switch;
#N canvas 0 0 798 854 detect-jumps 0;
#X obj 96 20 inlet;
#X obj 183 102 expr abs($f1 - $f2);
#X obj 237 170 moses 0.1;
#X obj 237 277 print -n;
#X obj 304 208 pack;
#X obj 195 33 t f f;
#X obj 391 33 t f f;
#X msg 236 238 JUMP from \$2 to \$1;
#X connect 0 0 5 0;
#X connect 1 0 2 0;
#X connect 2 1 4 0;
#X connect 4 0 7 0;
#X connect 5 0 6 0;
#X connect 5 1 1 0;
#X connect 6 0 1 1;
#X connect 6 1 4 1;
#X connect 7 0 3 0;
#X restore 292 682 pd detect-jumps;
#X obj 451 173 route 0 1 2 3;
#X obj 438 261 bng 15 250 50 0 empty empty empty 17 7 0 10 #fcfcfc
#000000 #000000;
#X obj 37 435 route 0 1 2 3 4 5 6 7, f 11;
#X obj 342 379 bng 15 250 50 0 empty empty empty 17 7 0 10 #fcfcfc
#000000 #000000;
#X obj 381 378 bng 15 250 50 0 empty empty empty 17 7 0 10 #fcfcfc
#000000 #000000;
#X obj 115 256 vsl 15 32 0 1 0 0 empty empty empty 0 -9 0 10 #00ff04
#000000 #000000 0 1;
#X floatatom 115 294 5 0 0 0 - - - 0;
#X obj 153 256 vsl 15 32 0 1 0 0 empty empty empty 0 -9 0 10 #00ff04
#000000 #000000 0 1;
#X floatatom 153 294 5 0 0 0 - - - 0;
#X obj 190 256 vsl 15 32 0 1 0 0 empty empty empty 0 -9 0 10 #00ff04
#000000 #000000 0 1;
#X floatatom 190 294 5 0 0 0 - - - 0;
#X obj 227 256 vsl 15 32 0 1 0 0 empty empty empty 0 -9 0 10 #00ff04
#000000 #000000 0 1;
#X floatatom 227 294 5 0 0 0 - - - 0;
#X obj 264 255 vsl 15 32 0 1 0 0 empty empty empty 0 -9 0 10 #00ff04
#000000 #000000 0 1;
#X floatatom 264 293 5 0 0 0 - - - 0;
#X obj 302 255 vsl 15 32 0 1 0 0 empty empty empty 0 -9 0 10 #00ff04
#000000 #000000 0 1;
#X floatatom 302 293 5 0 0 0 - - - 0;
#X obj 341 255 vsl 15 32 0 1 0 0 empty empty empty 0 -9 0 10 #00ff04
#000000 #000000 0 1;
#X floatatom 341 293 5 0 0 0 - - - 0;
#X obj 380 254 vsl 15 32 0 1 0 0 empty empty empty 0 -9 0 10 #00ff04
#000000 #000000 0 1;
#X floatatom 380 293 5 0 0 0 - - - 0;
#X obj 566 265 route 8 9 10 11 12 13 14 15, f 11;
#X obj 110 176 route 0 1 2 3 4 5 6 7;
#X obj 221 219 tgl 15 0 empty empty empty 17 7 0 10 #fcfcfc #000000
#000000 0 1;
#X obj 238 219 tgl 15 0 empty empty empty 17 7 0 10 #fcfcfc #000000
#000000 0 1;
#X obj 259 219 tgl 15 0 empty empty empty 17 7 0 10 #fcfcfc #000000
#000000 0 1;
#X obj 276 219 tgl 15 0 empty empty empty 17 7 0 10 #fcfcfc #000000
#000000 0 1;
#X obj 296 219 tgl 15 0 empty empty empty 17 7 0 10 #fcfcfc #000000
#000000 0 1;
#X obj 313 219 tgl 15 0 empty empty empty 17 7 0 10 #fcfcfc #000000
#000000 0 1;
#X obj 335 219 tgl 15 0 empty empty empty 17 7 0 10 #fcfcfc #000000
#000000 0 1;
#X obj 352 219 tgl 15 0 empty empty empty 17 7 0 10 #fcfcfc #000000
#000000 0 1;
#X obj 374 219 tgl 15 0 empty empty empty 17 7 0 10 #fcfcfc #000000
#000000 0 1;
#X obj 391 219 tgl 15 0 empty empty empty 17 7 0 10 #fcfcfc #000000
#000000 0 1;
#X obj 248 176 route 8 9 10 11 12 13 14 15;
#X obj 677 450 t a;
#X obj 115 318 vsl 15 32 0 1 0 0 empty empty empty 0 -9 0 10 #fcfcfc
#000000 #000000 0 1;
#X floatatom 115 356 5 0 0 0 - - - 0;
#X obj 153 318 vsl 15 32 0 1 0 0 empty empty empty 0 -9 0 10 #fcfcfc
#000000 #000000 0 1;
#X floatatom 153 356 5 0 0 0 - - - 0;
#X obj 190 318 vsl 15 32 0 1 0 0 empty empty empty 0 -9 0 10 #fcfcfc
#000000 #000000 0 1;
#X floatatom 190 356 5 0 0 0 - - - 0;
#X obj 227 318 vsl 15 32 0 1 0 0 empty empty empty 0 -9 0 10 #fcfcfc
#000000 #000000 0 1;
#X floatatom 227 356 5 0 0 0 - - - 0;
#X obj 264 318 vsl 15 32 0 1 0 0 empty empty empty 0 -9 0 10 #fcfcfc
#000000 #000000 0 1;
#X floatatom 264 356 5 0 0 0 - - - 0;
#X obj 302 318 vsl 15 32 0 1 0 0 empty empty empty 0 -9 0 10 #fcfcfc
#000000 #000000 0 1;
#X floatatom 302 356 5 0 0 0 - - - 0;
#X obj 341 318 vsl 15 32 0 1 0 0 empty empty empty 0 -9 0 10 #fcfcfc
#000000 #000000 0 1;
#X floatatom 341 356 5 0 0 0 - - - 0;
#X obj 380 317 vsl 15 32 0 1 0 0 empty empty empty 0 -9 0 10 #fcfcfc
#000000 #000000 0 1;
#X floatatom 380 355 5 0 0 0 - - - 0;
#X obj 36 189 route 0 1 2 3 4 5 6 7, f 7;
#X text 419 221 meta;
#X obj 38 29 inlet;
#X connect 0 0 18 0;
#X connect 16 0 72 0;
#X connect 16 1 19 0;
#X connect 17 0 21 0;
#X connect 18 0 23 0;
#X connect 18 1 16 0;
#X connect 19 0 43 0;
#X connect 19 1 17 0;
#X connect 21 0 7 0;
#X connect 21 1 8 0;
#X connect 21 2 9 0;
#X connect 21 3 22 0;
#X connect 23 0 1 0;
#X connect 23 1 2 0;
#X connect 23 2 3 0;
#X connect 23 3 4 0;
#X connect 23 4 5 0;
#X connect 23 5 6 0;
#X connect 23 6 24 0;
#X connect 23 7 25 0;
#X connect 26 0 27 0;
#X connect 28 0 29 0;
#X connect 30 0 31 0;
#X connect 32 0 33 0;
#X connect 34 0 35 0;
#X connect 36 0 37 0;
#X connect 38 0 39 0;
#X connect 40 0 41 0;
#X connect 42 0 26 0;
#X connect 42 1 28 0;
#X connect 42 2 30 0;
#X connect 42 3 32 0;
#X connect 42 4 34 0;
#X connect 42 5 36 0;
#X connect 42 6 38 0;
#X connect 42 7 40 0;
#X connect 43 0 10 0;
#X connect 43 1 11 0;
#X connect 43 2 12 0;
#X connect 43 3 13 0;
#X connect 43 4 14 0;
#X connect 43 5 15 0;
#X connect 43 6 44 0;
#X connect 43 7 45 0;
#X connect 43 8 54 0;
#X connect 54 0 46 0;
#X connect 54 1 47 0;
#X connect 54 2 48 0;
#X connect 54 3 49 0;
#X connect 54 4 50 0;
#X connect 54 5 51 0;
#X connect 54 6 52 0;
#X connect 54 7 53 0;
#X connect 55 0 42 0;
#X connect 56 0 57 0;
#X connect 58 0 59 0;
#X connect 60 0 61 0;
#X connect 62 0 63 0;
#X connect 64 0 65 0;
#X connect 66 0 67 0;
#X connect 68 0 69 0;
#X connect 70 0 71 0;
#X connect 72 0 56 0;
#X connect 72 1 58 0;
#X connect 72 2 60 0;
#X connect 72 3 62 0;
#X connect 72 4 64 0;
#X connect 72 5 66 0;
#X connect 72 6 68 0;
#X connect 72 7 70 0;
#X connect 72 8 55 0;
#X connect 74 0 0 0;
#X coords 0 -1 1 1 360 200 1 100 200;
