#N canvas 0 30 681 503 10;
#X obj 373 157 loadbang;
#X obj 373 203 s \$0-GLOBAL;
#X msg 373 180 list init 0;
#X obj 273 482 r \$0-out;
#N canvas 683 30 681 503 out 0;
#X obj 315 49 sdEventToProperties;
#X obj 426 72 sdProperty volume \$0;
#X obj 105 138 vsl 15 64 0 1 0 0 empty empty empty 0 -9 0 10 -262144
-1 -1 0 1;
#X obj 62 51 r \$0-volume;
#X obj 315 26 inlet;
#X floatatom 105 210 5 0 0 0 - - -;
#X obj 543 95 sdProperty reverb \$0;
#X obj 145 138 vsl 15 64 0 1 0 0 empty empty empty 0 -9 0 10 -262144
-1 -1 0 1;
#X floatatom 145 210 5 0 0 0 - - -;
#X obj 145 58 r \$0-reverb;
#X obj 105 117 tgl 15 0 empty empty empty 17 7 0 10 -262144 -1 -1 0
1;
#X obj 61 26 r \$0-volume_enable;
#X obj 145 117 tgl 15 0 empty empty empty 17 7 0 10 -262144 -1 -1 0
1;
#X obj 205 83 r \$0-reverb_enable;
#X obj 425 145 sdProperty volume_enable \$0;
#X obj 542 168 sdProperty reverb_enable \$0;
#X connect 0 1 1 0;
#X connect 1 1 6 0;
#X connect 2 0 5 0;
#X connect 3 0 2 0;
#X connect 4 0 0 0;
#X connect 6 1 14 0;
#X connect 7 0 8 0;
#X connect 9 0 7 0;
#X connect 11 0 10 0;
#X connect 13 0 12 0;
#X connect 14 1 15 0;
#X coords 0 -1 1 1 85 130 1 100 100;
#X restore 273 505 pd out;
#N canvas 0 407 844 345 device 0;
#X text 102 100 device ver.;
#X floatatom 105 117 5 1 2 0 - - -;
#X obj 88 312 outlet;
#X msg 112 212 list set 3 version 1 \$1;
#X obj 97 41 inlet;
#X connect 1 0 3 0;
#X connect 3 0 2 0;
#X connect 4 0 1 0;
#X coords 0 -1 1 1 74 36 2 100 100;
#X restore 374 82 pd device version;
#X obj 374 123 s sgDevice;
#X obj 443 121 s sgDev_raw;
#X obj 374 60 r dev_version;
#N canvas 0 30 681 722 raw 0;
#X obj 133 10 midiin;
#X obj 133 60 list trim;
#X obj 50 414 vsl 15 128 0 1 0 0 empty empty empty 0 -9 0 10 -262144
-1 -1 0 1;
#X floatatom 50 550 5 0 0 0 - - -;
#X obj 148 259 route 0 1 2 3 4 5;
#X obj 48 668 throw~ out, f 7;
#X obj 624 646 catch~ out;
#X obj 586 810 dac~;
#X obj 586 787 hip~ 1;
#X obj 624 669 *~;
#X obj 696 646 pack 0 50;
#X obj 696 669 line~;
#X obj 696 574 vsl 15 64 0 1 0 0 empty empty volume 0 -9 0 10 -262144
-1 -1 0 1;
#X floatatom 48 621 5 0 0 0 - - -;
#X obj 100 414 vsl 15 128 0 1 0 0 empty empty empty 0 -9 0 10 -262144
-1 -1 0 1;
#X floatatom 100 550 5 0 0 0 - - -;
#X obj 416 255 route 0 1 2 3 4 5;
#X obj 416 281 bng 15 250 50 0 empty empty empty 17 7 0 10 -262144
-1 -1;
#X obj 436 281 bng 15 250 50 0 empty empty empty 17 7 0 10 -262144
-1 -1;
#X obj 456 281 bng 15 250 50 0 empty empty empty 17 7 0 10 -262144
-1 -1;
#X obj 476 281 bng 15 250 50 0 empty empty empty 17 7 0 10 -262144
-1 -1;
#X obj 496 281 bng 15 250 50 0 empty empty empty 17 7 0 10 -262144
-1 -1;
#X obj 516 281 bng 15 250 50 0 empty empty empty 17 7 0 10 -262144
-1 -1;
#X obj 282 259 route 0 1 2;
#X obj 282 286 bng 15 250 50 0 empty empty empty 17 7 0 10 -262144
-1 -1;
#X obj 302 286 bng 15 250 50 0 empty empty empty 17 7 0 10 -262144
-1 -1;
#X obj 322 286 bng 15 250 50 0 empty empty empty 17 7 0 10 -262144
-1 -1;
#X obj 563 255 route 0 1 2 3 4 5;
#X obj 563 280 tgl 15 0 empty empty empty 17 7 0 10 -262144 -1 -1 0
1;
#X obj 583 280 tgl 15 0 empty empty empty 17 7 0 10 -262144 -1 -1 0
1;
#X obj 603 280 tgl 15 0 empty empty empty 17 7 0 10 -262144 -1 -1 0
1;
#X obj 623 280 tgl 15 0 empty empty empty 17 7 0 10 -262144 -1 -1 0
1;
#X obj 643 280 tgl 15 0 empty empty empty 17 7 0 10 -262144 -1 -1 0
1;
#X obj 663 280 tgl 15 0 empty empty empty 17 7 0 10 -262144 -1 -1 0
1;
#X obj 150 414 vsl 15 128 0 1 0 0 empty empty empty 0 -9 0 10 -262144
-1 -1 0 1;
#X floatatom 150 550 5 0 0 0 - - -;
#X obj 48 572 expr $f1*120, f 6;
#X obj 200 414 vsl 15 128 0 1 0 0 empty empty empty 0 -9 0 10 -262144
-1 -1 0 1;
#X floatatom 200 550 5 0 0 0 - - -;
#X obj 250 414 vsl 15 128 0 1 0 0 empty empty empty 0 -9 0 10 -262144
-1 -1 0 1;
#X floatatom 250 550 5 0 0 0 - - -;
#X obj 300 414 vsl 15 128 0 1 0 0 empty empty empty 0 -9 0 10 -262144
-1 -1 0 1;
#X floatatom 300 550 5 0 0 0 - - -;
#N canvas 0 30 798 854 random 0;
#X obj 80 16 inlet;
#X obj 99 419 outlet;
#X obj 128 181 random 1000;
#X obj 128 204 / 1000;
#X obj 96 133 until;
#X msg 95 110 6;
#X obj 95 87 t b b;
#X obj 57 255 f;
#X obj 57 278 t f f;
#X obj 110 275 + 1;
#X obj 96 156 t b b;
#X msg 238 190 0;
#X obj 73 314 pack;
#X connect 0 0 6 0;
#X connect 2 0 3 0;
#X connect 3 0 12 1;
#X connect 4 0 10 0;
#X connect 5 0 4 0;
#X connect 6 0 5 0;
#X connect 6 1 11 0;
#X connect 7 0 8 0;
#X connect 8 0 12 0;
#X connect 8 1 9 0;
#X connect 9 0 7 1;
#X connect 10 0 7 0;
#X connect 10 1 2 0;
#X connect 11 0 7 1;
#X connect 12 0 1 0;
#X restore 416 303 pd random;
#N canvas 0 30 798 854 osc~ 0;
#X obj 50 123 osc~;
#X obj 50 97 line~;
#X obj 56 22 inlet;
#X obj 50 279 outlet~;
#X obj 59 49 mtof;
#X obj 50 169 clip~ -1 1;
#X obj 50 146 *~ 50;
#X obj 50 192 lop~ 200;
#X obj 103 103 tgl 15 0 empty empty empty 17 7 0 10 -262144 -1 -1 0
1;
#X obj 163 129 pack 0 50;
#X obj 163 152 line~;
#X obj 50 215 *~;
#X obj 228 27 inlet;
#X obj 50 74 pack 0 500;
#X obj 111 14 loadbang;
#X obj 108 38 random 1000;
#X connect 0 0 6 0;
#X connect 1 0 0 0;
#X connect 2 0 4 0;
#X connect 4 0 13 0;
#X connect 5 0 7 0;
#X connect 6 0 5 0;
#X connect 7 0 11 0;
#X connect 8 0 9 0;
#X connect 9 0 10 0;
#X connect 10 0 11 1;
#X connect 11 0 3 0;
#X connect 12 0 8 0;
#X connect 13 0 1 0;
#X connect 14 0 15 0;
#X connect 15 0 13 1;
#X coords 0 -1 1 1 20 20 1 100 100;
#X restore 48 644 pd osc~;
#X obj 479 628 delwrite~ \$0-del 1000;
#X obj 458 684 delread~ \$0-del 200;
#X obj 98 668 throw~ out, f 7;
#X floatatom 98 621 5 0 0 0 - - -;
#X obj 98 572 expr $f1*120, f 6;
#N canvas 0 30 798 854 osc~ 0;
#X obj 50 123 osc~;
#X obj 50 97 line~;
#X obj 56 22 inlet;
#X obj 50 279 outlet~;
#X obj 59 49 mtof;
#X obj 50 169 clip~ -1 1;
#X obj 50 146 *~ 50;
#X obj 50 192 lop~ 200;
#X obj 103 103 tgl 15 0 empty empty empty 17 7 0 10 -262144 -1 -1 0
1;
#X obj 163 129 pack 0 50;
#X obj 163 152 line~;
#X obj 50 215 *~;
#X obj 228 27 inlet;
#X obj 50 74 pack 0 500;
#X obj 111 14 loadbang;
#X obj 108 38 random 1000;
#X connect 0 0 6 0;
#X connect 1 0 0 0;
#X connect 2 0 4 0;
#X connect 4 0 13 0;
#X connect 5 0 7 0;
#X connect 6 0 5 0;
#X connect 7 0 11 0;
#X connect 8 0 9 0;
#X connect 9 0 10 0;
#X connect 10 0 11 1;
#X connect 11 0 3 0;
#X connect 12 0 8 0;
#X connect 13 0 1 0;
#X connect 14 0 15 0;
#X connect 15 0 13 1;
#X coords 0 -1 1 1 20 20 1 100 100;
#X restore 98 644 pd osc~;
#X obj 148 668 throw~ out, f 7;
#X floatatom 148 621 5 0 0 0 - - -;
#X obj 148 572 expr $f1*120, f 6;
#N canvas 0 30 798 854 osc~ 0;
#X obj 50 123 osc~;
#X obj 50 97 line~;
#X obj 56 22 inlet;
#X obj 50 279 outlet~;
#X obj 59 49 mtof;
#X obj 50 169 clip~ -1 1;
#X obj 50 146 *~ 50;
#X obj 50 192 lop~ 200;
#X obj 103 103 tgl 15 0 empty empty empty 17 7 0 10 -262144 -1 -1 0
1;
#X obj 163 129 pack 0 50;
#X obj 163 152 line~;
#X obj 50 215 *~;
#X obj 228 27 inlet;
#X obj 50 74 pack 0 500;
#X obj 111 14 loadbang;
#X obj 108 38 random 1000;
#X connect 0 0 6 0;
#X connect 1 0 0 0;
#X connect 2 0 4 0;
#X connect 4 0 13 0;
#X connect 5 0 7 0;
#X connect 6 0 5 0;
#X connect 7 0 11 0;
#X connect 8 0 9 0;
#X connect 9 0 10 0;
#X connect 10 0 11 1;
#X connect 11 0 3 0;
#X connect 12 0 8 0;
#X connect 13 0 1 0;
#X connect 14 0 15 0;
#X connect 15 0 13 1;
#X coords 0 -1 1 1 20 20 1 100 100;
#X restore 148 644 pd osc~;
#X obj 198 668 throw~ out, f 7;
#X floatatom 198 621 5 0 0 0 - - -;
#X obj 198 572 expr $f1*120, f 6;
#N canvas 0 30 798 854 osc~ 0;
#X obj 50 123 osc~;
#X obj 50 97 line~;
#X obj 56 22 inlet;
#X obj 50 279 outlet~;
#X obj 59 49 mtof;
#X obj 50 169 clip~ -1 1;
#X obj 50 146 *~ 50;
#X obj 50 192 lop~ 200;
#X obj 103 103 tgl 15 0 empty empty empty 17 7 0 10 -262144 -1 -1 0
1;
#X obj 163 129 pack 0 50;
#X obj 163 152 line~;
#X obj 50 215 *~;
#X obj 228 27 inlet;
#X obj 50 74 pack 0 500;
#X obj 111 14 loadbang;
#X obj 108 38 random 1000;
#X connect 0 0 6 0;
#X connect 1 0 0 0;
#X connect 2 0 4 0;
#X connect 4 0 13 0;
#X connect 5 0 7 0;
#X connect 6 0 5 0;
#X connect 7 0 11 0;
#X connect 8 0 9 0;
#X connect 9 0 10 0;
#X connect 10 0 11 1;
#X connect 11 0 3 0;
#X connect 12 0 8 0;
#X connect 13 0 1 0;
#X connect 14 0 15 0;
#X connect 15 0 13 1;
#X coords 0 -1 1 1 20 20 1 100 100;
#X restore 198 644 pd osc~;
#X obj 248 668 throw~ out, f 7;
#X floatatom 248 621 5 0 0 0 - - -;
#X obj 248 572 expr $f1*120, f 6;
#N canvas 0 30 798 854 osc~ 0;
#X obj 50 123 osc~;
#X obj 50 97 line~;
#X obj 56 22 inlet;
#X obj 50 279 outlet~;
#X obj 59 49 mtof;
#X obj 50 169 clip~ -1 1;
#X obj 50 146 *~ 50;
#X obj 50 192 lop~ 200;
#X obj 103 103 tgl 15 0 empty empty empty 17 7 0 10 -262144 -1 -1 0
1;
#X obj 163 129 pack 0 50;
#X obj 163 152 line~;
#X obj 50 215 *~;
#X obj 228 27 inlet;
#X obj 50 74 pack 0 500;
#X obj 111 14 loadbang;
#X obj 108 38 random 1000;
#X connect 0 0 6 0;
#X connect 1 0 0 0;
#X connect 2 0 4 0;
#X connect 4 0 13 0;
#X connect 5 0 7 0;
#X connect 6 0 5 0;
#X connect 7 0 11 0;
#X connect 8 0 9 0;
#X connect 9 0 10 0;
#X connect 10 0 11 1;
#X connect 11 0 3 0;
#X connect 12 0 8 0;
#X connect 13 0 1 0;
#X connect 14 0 15 0;
#X connect 15 0 13 1;
#X coords 0 -1 1 1 20 20 1 100 100;
#X restore 248 644 pd osc~;
#X obj 298 668 throw~ out, f 7;
#X floatatom 298 621 5 0 0 0 - - -;
#X obj 298 572 expr $f1*120, f 6;
#N canvas 0 30 798 854 osc~ 0;
#X obj 50 123 osc~;
#X obj 50 97 line~;
#X obj 56 22 inlet;
#X obj 50 279 outlet~;
#X obj 59 49 mtof;
#X obj 50 169 clip~ -1 1;
#X obj 50 146 *~ 50;
#X obj 50 192 lop~ 200;
#X obj 103 103 tgl 15 0 empty empty empty 17 7 0 10 -262144 -1 -1 0
1;
#X obj 163 129 pack 0 50;
#X obj 163 152 line~;
#X obj 50 215 *~;
#X obj 228 27 inlet;
#X obj 50 74 pack 0 500;
#X obj 111 14 loadbang;
#X obj 108 38 random 1000;
#X connect 0 0 6 0;
#X connect 1 0 0 0;
#X connect 2 0 4 0;
#X connect 4 0 13 0;
#X connect 5 0 7 0;
#X connect 6 0 5 0;
#X connect 7 0 11 0;
#X connect 8 0 9 0;
#X connect 9 0 10 0;
#X connect 10 0 11 1;
#X connect 11 0 3 0;
#X connect 12 0 8 0;
#X connect 13 0 1 0;
#X connect 14 0 15 0;
#X connect 15 0 13 1;
#X coords 0 -1 1 1 20 20 1 100 100;
#X restore 298 644 pd osc~;
#X obj 125 153 route analog;
#X obj 264 153 route meta;
#X obj 397 154 route trigger;
#X obj 544 154 route switch;
#X obj 133 35 sgDevice2;
#X connect 0 0 71 0;
#X connect 1 0 67 0;
#X connect 2 0 3 0;
#X connect 3 0 36 0;
#X connect 4 0 2 0;
#X connect 4 1 14 0;
#X connect 4 2 34 0;
#X connect 4 3 37 0;
#X connect 4 4 39 0;
#X connect 4 5 41 0;
#X connect 6 0 9 0;
#X connect 8 0 7 0;
#X connect 9 0 8 0;
#X connect 9 0 45 0;
#X connect 10 0 11 0;
#X connect 11 0 9 1;
#X connect 12 0 10 0;
#X connect 13 0 44 0;
#X connect 14 0 15 0;
#X connect 15 0 49 0;
#X connect 16 0 17 0;
#X connect 16 1 18 0;
#X connect 16 2 19 0;
#X connect 16 3 20 0;
#X connect 16 4 21 0;
#X connect 16 5 22 0;
#X connect 17 0 43 0;
#X connect 23 0 24 0;
#X connect 23 1 25 0;
#X connect 23 2 26 0;
#X connect 27 0 28 0;
#X connect 27 1 29 0;
#X connect 27 2 30 0;
#X connect 27 3 31 0;
#X connect 27 4 32 0;
#X connect 27 5 33 0;
#X connect 28 0 44 1;
#X connect 29 0 50 1;
#X connect 30 0 54 1;
#X connect 31 0 58 1;
#X connect 32 0 62 1;
#X connect 33 0 66 1;
#X connect 34 0 35 0;
#X connect 35 0 53 0;
#X connect 36 0 13 0;
#X connect 37 0 38 0;
#X connect 38 0 57 0;
#X connect 39 0 40 0;
#X connect 40 0 61 0;
#X connect 41 0 42 0;
#X connect 42 0 65 0;
#X connect 43 0 4 0;
#X connect 44 0 5 0;
#X connect 46 0 8 0;
#X connect 48 0 50 0;
#X connect 49 0 48 0;
#X connect 50 0 47 0;
#X connect 52 0 54 0;
#X connect 53 0 52 0;
#X connect 54 0 51 0;
#X connect 56 0 58 0;
#X connect 57 0 56 0;
#X connect 58 0 55 0;
#X connect 60 0 62 0;
#X connect 61 0 60 0;
#X connect 62 0 59 0;
#X connect 64 0 66 0;
#X connect 65 0 64 0;
#X connect 66 0 63 0;
#X connect 67 0 4 0;
#X connect 67 1 68 0;
#X connect 68 0 23 0;
#X connect 68 1 69 0;
#X connect 69 0 16 0;
#X connect 69 1 70 0;
#X connect 70 0 27 0;
#X connect 71 0 1 0;
#X restore 31 29 pd raw input;
#N canvas 0 30 681 722 simple 0;
#X text 11 8 simple "sgDevice" obj sending ctrl events;
#N canvas 0 30 762 722 (subpatch) 0;
#X obj 67 163 print;
#X obj 67 139 sdGate;
#X obj 121 103 tgl 15 0 empty empty empty 17 7 0 10 -262144 -1 -1 0
1;
#X obj 40 114 t a a;
#X text 136 101 print msgs;
#X obj 35 38 inlet;
#X obj 40 187 outlet;
#X connect 1 0 0 0;
#X connect 2 0 1 1;
#X connect 3 0 6 0;
#X connect 3 1 1 0;
#X connect 5 0 3 0;
#X coords 0 -1 1 1 100 22 1 100 100;
#X restore 20 54 pd;
#N canvas 0 30 762 722 (subpatch) 0;
#X obj 67 163 print;
#X obj 67 139 sdGate;
#X obj 121 103 tgl 15 0 empty empty empty 17 7 0 10 -262144 -1 -1 0
1;
#X obj 40 114 t a a;
#X text 136 101 print msgs;
#X obj 35 38 inlet;
#X obj 40 187 outlet;
#X connect 1 0 0 0;
#X connect 2 0 1 1;
#X connect 3 0 6 0;
#X connect 3 1 1 0;
#X connect 5 0 3 0;
#X coords 0 -1 1 1 100 22 1 100 100;
#X restore 318 54 pd;
#X text 305 5 same for (computer) keyboard...;
#X obj 318 32 sdKeyboard_obj Keyb_raw \$0-GLOBAL;
#X obj 20 31 sgDevice_obj sgDev_raw \$0-GLOBAL 1;
#X connect 4 0 2 0;
#X connect 5 0 1 0;
#X restore 31 71 pd simple input based on sdEvents;
#N canvas 0 30 1364 503 send 0;
#X obj 19 222 s \$0-input;
#X text 109 223 you can step through modes using the "meta" triggers
(if there are multiple modes), f 25;
#X text 11 138 the "sgDevice" with "modes";
#X obj 266 207 s \$0-input;
#X obj 266 156 sdKeyboardModes_ui Keyboard \$0-GLOBAL;
#X floatatom 266 113 5 0 0 0 - - -;
#X msg 266 134 list set 3 mode 1 \$1;
#X obj 19 157 sgDeviceModes_ui sgDevice \$0-GLOBAL 1;
#X obj 240 411 bng 15 250 50 0 empty empty empty 17 7 0 10 -262144
-1 -1;
#N canvas 0 30 1364 503 modes 0;
#X obj 129 400 sdPackFromHuman;
#X msg 114 303 list play ( #[ ( trigger ( index ( ?index ) ) ) ( Print
( Pack ( play Pack ( pitch $ ( index ) ) ) ) Out ( list ) ) #] ) volume
( #[ ( analog ( * index ( 0 ) value ( ?value ) ) ) ( Print ( Pack (
volume $ ( value ) ) ) Out ( list ) ) #] ) bend ( #[ ( analog ( * index
( 1 ) value ( ?value ) ) ) ( Print ( Pack ( bend $ ( value ) ) ) Out
( list ) ) #] );
#X obj 106 110 t b b;
#X obj 129 423 sdPack modei;
#X obj 266 65 t b b;
#X msg 733 209 clear;
#X obj 129 447 sdSetSelector append;
#X obj 213 598 outlet;
#X obj 70 18 inlet;
#X obj 213 509 sdData;
#X obj 70 41 t b b;
#X obj 65 455 t b;
#X obj 213 555 sdPack set;
#X obj 213 532 sdPack modes;
#X msg 133 132 list out_vol ( #[ ( analog ( * index ( 0 ) value ( ?value
) ) ) ( Print ( Pack ( out_volume $ ( value ) ) ) Out ( list ) ) #]
) out_reverb ( #[ ( analog ( * index ( 1 ) value ( ?value ) ) ) ( Print
( Pack ( out_reverb $ ( value ) ) ) Out ( list ) ) #] ) out_vol_enable
( #[ ( switch ( * index ( 0 ) value ( ?value ) ) ) ( Print ( Pack (
out_volume_enable $ ( value ) ) ) Out ( list ) ) #] ) out_reverb_enable
( #[ ( switch ( * index ( 1 ) value ( ?value ) ) ) ( Print ( Pack (
out_reverb_enable $ ( value ) ) ) Out ( list ) ) #] );
#X connect 0 0 3 0;
#X connect 1 0 0 0;
#X connect 2 0 1 0;
#X connect 2 1 14 0;
#X connect 3 0 6 0;
#X connect 4 0 2 0;
#X connect 4 1 5 0;
#X connect 5 0 9 0;
#X connect 6 0 9 0;
#X connect 8 0 10 0;
#X connect 9 0 13 0;
#X connect 10 0 11 0;
#X connect 10 1 4 0;
#X connect 11 0 9 0;
#X connect 12 0 7 0;
#X connect 13 0 12 0;
#X connect 14 0 0 0;
#X restore 279 450 pd modes;
#X text 130 348 default mode: send control events;
#N canvas 0 30 762 722 modes 0;
#X obj 114 238 sdPackFromHuman;
#X obj 122 377 sdPack modei;
#X obj 247 49 t b b, f 36;
#X msg 616 210 clear;
#X obj 122 401 sdSetSelector append;
#X obj 205 641 outlet;
#X obj 17 10 inlet;
#X obj 205 552 sdData;
#X obj 17 33 t b b;
#X obj 50 375 t b;
#X obj 205 598 sdPack set;
#X obj 205 575 sdPack modes;
#X msg 114 188 list out_vol ( #[ ( key ( * symbol ( \$1 ) value ( 1
) ) ) ( Print ( Pack ( play Pack ( pitch \$2 ) ) ) Out ( list ) ) #]
);
#X obj 114 165 pack s f;
#X msg 114 129 a 0 \, s 2 \, d 4 \, f 5 \, g 7 \, h 9 \, j 11 \, k
12 \, w 1 \, e 3 \, t 6 \, z 8 \, u 10;
#X obj 122 354 sdData;
#X msg 519 225 clear;
#X obj 76 94 t b b b, f 66;
#X obj 81 67 bng 15 250 50 0 empty empty empty 17 7 0 10 -262144 -1
-1;
#X connect 0 0 15 1;
#X connect 1 0 4 0;
#X connect 2 0 17 0;
#X connect 2 1 3 0;
#X connect 3 0 7 0;
#X connect 4 0 7 0;
#X connect 6 0 8 0;
#X connect 7 0 11 0;
#X connect 8 0 9 0;
#X connect 8 1 2 0;
#X connect 9 0 7 0;
#X connect 10 0 5 0;
#X connect 11 0 10 0;
#X connect 12 0 0 0;
#X connect 13 0 12 0;
#X connect 14 0 13 0;
#X connect 15 0 1 0;
#X connect 16 0 15 0;
#X connect 17 0 15 0;
#X connect 17 1 14 0;
#X connect 17 2 16 0;
#X connect 18 0 17 0;
#X restore 240 497 pd modes;
#X obj 240 520 s Keyboard;
#X text 145 362 you can set other "modes" to send specific events \,
like "output volume" \, "play note" \, ..., f 44;
#X obj 240 431 t b b;
#X text 257 406 set advanced modes;
#X obj 279 474 s sgDevice;
#X text 40 17 in this scenario you can use the "meta" buttons to switch
through several "modes". A mode is a mapping from some input controls
to a message.;
#X connect 4 0 3 0;
#X connect 5 0 6 0;
#X connect 6 0 4 0;
#X connect 7 0 0 0;
#X connect 8 0 14 0;
#X connect 9 0 16 0;
#X connect 11 0 12 0;
#X connect 14 0 11 0;
#X connect 14 1 9 0;
#X restore 31 114 pd send sdEvents with "modes";
#X text 37 279 intermediate step (optional):;
#X text 50 298 redirect events from input devices to instruments or
other objects, f 27;
#X text 359 11 set "sgDevice" version based on cmd line args:, f 19
;
#N canvas 0 30 1364 503 events 0;
#X obj 50 34 inlet;
#X obj 90 279 outlet;
#X obj 139 98 loadbang;
#X obj 119 153 sdPackMatch volume;
#N canvas 0 30 1364 503 <event> 0;
#X obj 89 384 sdReplace \$0;
#X obj 89 29 inlet;
#X obj 89 407 outlet;
#X msg 89 63 clear \, add_script play_to_instr ( play ( args=[ * =]
) ) ( Print ( Pack ( %0-instr Pack ( start $ ( args ) Pack ( volume
$ ( volume ) ) ) ) ) Out ( list ) ) \, add_script vol_to_instr ( volume
( ?vol ) ) ( = ( volume $ ( vol ) ) ) \, add_script out_vol ( out_volume
( any=[ * =] ) ) ( Print ( Pack ( %0-out Pack ( set_vol Pack ( volume
$ ( any ) ) ) ) ) Out ( list ) ) ) \, add_script out_rev ( out_reverb
( any=[ * =] ) ) ( Print ( Pack ( %0-out Pack ( set_rev Pack ( reverb
$ ( any ) ) ) ) ) Out ( list ) ) ) \, add_script out_vol_enable ( out_volume_enable
( any=[ * =] ) ) ( Print ( Pack ( %0-out Pack ( set_vol_enable Pack
( volume_enable $ ( any ) ) ) ) ) Out ( list ) ) ) \, add_script out_reverb_enable
( out_reverb_enable ( any=[ * =] ) ) ( Print ( Pack ( %0-out Pack (
set_reverb_enable Pack ( reverb_enable $ ( any ) ) ) ) ) Out ( list
) ) );
#X connect 0 0 2 0;
#X connect 1 0 3 0;
#X connect 3 0 0 0;
#X restore 139 121 pd <event> -> <dest> ( <event> );
#N canvas 0 30 762 722 (subpatch) 0;
#X obj 67 163 print;
#X obj 67 139 sdGate;
#X obj 121 103 tgl 15 0 empty empty empty 17 7 0 10 -262144 -1 -1 0
1;
#X obj 40 114 t a a;
#X text 136 101 print msgs;
#X obj 35 38 inlet;
#X obj 40 187 outlet;
#X connect 1 0 0 0;
#X connect 2 0 1 1;
#X connect 3 0 6 0;
#X connect 3 1 1 0;
#X connect 5 0 3 0;
#X coords 0 -1 1 1 100 22 1 100 100;
#X restore 90 185 pd;
#X obj 197 100 bng 15 250 50 0 empty empty empty 17 7 0 10 -262144
-1 -1;
#X text 351 120 <- the mapping is defined here;
#X text 238 155 <- global var to remember current "volume" for the
instrument;
#X connect 0 0 3 0;
#X connect 2 0 4 0;
#X connect 3 0 5 0;
#X connect 4 0 3 0;
#X connect 5 0 1 0;
#X connect 6 0 4 0;
#X restore 52 393 pd events -> instrument;
#X obj 51 367 r \$0-input;
#X obj 52 418 sdUnPack;
#X obj 52 442 send;
#X obj 33 501 sdObjExample \$0-instr \$0-GLOBAL gInstr;
#N canvas 0 30 681 503 generic 0;
#X obj 330 88 sgDevice_obj sgDev_raw \$0-GLOBAL 1;
#X obj 513 273 s GUI;
#N canvas 0 30 762 722 (subpatch) 0;
#X obj 67 163 print;
#X obj 67 139 sdGate;
#X obj 121 103 tgl 15 0 empty empty empty 17 7 0 10 -262144 -1 -1 0
1;
#X obj 40 114 t a a;
#X text 136 101 print msgs;
#X obj 35 38 inlet;
#X obj 40 187 outlet;
#X connect 1 0 0 0;
#X connect 2 0 1 1;
#X connect 3 0 6 0;
#X connect 3 1 1 0;
#X connect 5 0 3 0;
#X coords 0 -1 1 1 100 22 1 100 100;
#X restore 574 270 pd;
#X obj 513 226 sgDeviceToInterface;
#X obj 11 618 s \$0-fromGUI;
#X obj 624 203 r \$0-fromGUI;
#X obj 11 12 sdObjState_ui GUI \$0-GUI-INIT gInstr;
#X msg 332 13 list init 0;
#X obj 332 36 s \$0-GUI-INIT;
#N canvas 0 30 762 722 (subpatch) 0;
#X obj 67 163 print;
#X obj 67 139 sdGate;
#X obj 121 103 tgl 15 0 empty empty empty 17 7 0 10 -262144 -1 -1 0
1;
#X obj 40 114 t a a;
#X text 136 101 print msgs;
#X obj 35 38 inlet;
#X obj 40 187 outlet;
#X connect 1 0 0 0;
#X connect 2 0 1 1;
#X connect 3 0 6 0;
#X connect 3 1 1 0;
#X connect 5 0 3 0;
#X coords 0 -1 1 1 100 22 1 100 100;
#X restore 330 112 pd;
#X obj 812 77 r \$0-reserved-input;
#X obj 330 288 s \$0-reserved-input, f 10;
#N canvas 0 30 762 722 (subpatch) 0;
#X obj 67 163 print;
#X obj 67 139 sdGate;
#X obj 121 103 tgl 15 0 empty empty empty 17 7 0 10 -262144 -1 -1 0
1;
#X obj 40 114 t a a;
#X text 136 101 print msgs;
#X obj 35 38 inlet;
#X obj 40 187 outlet;
#X connect 1 0 0 0;
#X connect 2 0 1 1;
#X connect 3 0 6 0;
#X connect 3 1 1 0;
#X connect 5 0 3 0;
#X coords 0 -1 1 1 100 22 1 100 100;
#X restore 812 103 pd;
#N canvas 0 30 681 503 to-objects 0;
#X obj 75 166 sdPackMatch;
#X obj 155 119 sdReplace \$0;
#X msg 155 80 clear \, add_script out ( out ( args=[ * =] ) ) ( Print
( Pack ( %0-out Pack ( set $ ( args ) ) ) ) Out ( list ) );
#X obj 155 57 loadbang;
#X obj 31 68 inlet;
#X obj 75 189 outlet;
#X connect 0 0 5 0;
#X connect 1 0 0 0;
#X connect 2 0 1 0;
#X connect 3 0 2 0;
#X connect 4 0 0 0;
#X restore 812 132 pd to-objects;
#N canvas 0 30 762 722 (subpatch) 0;
#X obj 67 163 print;
#X obj 67 139 sdGate;
#X obj 121 103 tgl 15 0 empty empty empty 17 7 0 10 -262144 -1 -1 0
1;
#X obj 40 114 t a a;
#X text 136 101 print msgs;
#X obj 35 38 inlet;
#X obj 40 187 outlet;
#X connect 1 0 0 0;
#X connect 2 0 1 1;
#X connect 3 0 6 0;
#X connect 3 1 1 0;
#X connect 5 0 3 0;
#X coords 0 -1 1 1 100 22 1 100 100;
#X restore 812 156 pd;
#X obj 812 183 sdUnPack;
#X obj 812 206 send;
#N canvas 0 30 681 503 reserved-input 0;
#X obj 76 168 sdPackMatch;
#X obj 128 21 loadbang;
#X obj 76 191 outlet;
#X obj 8 17 inlet;
#X obj 143 193 outlet;
#X msg 128 44 clear \, add out analog ( * value ( ?volume ) index (
0 ) ) \, add out analog ( * value ( ?reverb ) index ( 1 ) ) \, add_script
out-enable ( switch ( * value ( ?value ) index ( 0 ) ) ) ( Print (
Pack ( out Pack ( volume_enable != ( 0 $ ( value ) ) ) ) ) Out ( list
) ) \, add_script reverb-enable ( switch ( * value ( ?value ) index
( 1 ) ) ) ( Print ( Pack ( out Pack ( reverb_enable != ( 0 $ ( value
) ) ) ) ) Out ( list ) );
#X connect 0 0 2 0;
#X connect 0 1 4 0;
#X connect 1 0 5 0;
#X connect 3 0 0 0;
#X connect 5 0 0 0;
#X restore 330 263 pd reserved-input;
#X text 634 227 <-- control interface/gui by sgDevice;
#X text 454 141 <- catch some controls and connect them statically
;
#N canvas 0 30 681 503 filter_analog 0;
#X obj 55 70 sdPackFilter analog, f 50;
#X obj 65 150 outlet;
#X obj 57 30 inlet;
#X obj 363 153 outlet;
#X obj 55 94 sdEvent_filterByIndex 7 1;
#X obj 138 118 sdEvent_filterByIndex 14 1 1;
#X connect 0 0 4 0;
#X connect 0 1 3 0;
#X connect 2 0 0 0;
#X connect 4 0 1 0;
#X connect 4 1 5 0;
#X connect 5 0 1 0;
#X connect 5 1 3 0;
#X restore 330 144 pd filter_analog;
#N canvas 0 30 681 503 filter_switch 0;
#X obj 65 150 outlet;
#X obj 57 30 inlet;
#X obj 363 153 outlet;
#X obj 55 70 sdPackFilter switch, f 50;
#X obj 55 94 sdEvent_filterByIndex 14 1;
#X obj 118 122 sdEvent_filterByIndex 14 1 1;
#X connect 1 0 3 0;
#X connect 3 0 4 0;
#X connect 3 1 2 0;
#X connect 4 0 0 0;
#X connect 4 1 5 0;
#X connect 5 0 0 0;
#X connect 5 1 2 0;
#X restore 423 168 pd filter_switch;
#N canvas 0 30 762 722 (subpatch) 0;
#X obj 67 163 print;
#X obj 67 139 sdGate;
#X obj 121 103 tgl 15 0 empty empty empty 17 7 0 10 -262144 -1 -1 0
1;
#X obj 40 114 t a a;
#X text 136 101 print msgs;
#X obj 35 38 inlet;
#X obj 40 187 outlet;
#X connect 1 0 0 0;
#X connect 2 0 1 1;
#X connect 3 0 6 0;
#X connect 3 1 1 0;
#X connect 5 0 3 0;
#X coords 0 -1 1 1 100 22 1 100 100;
#X restore 372 227 pd;
#X connect 0 0 9 0;
#X connect 3 0 1 0;
#X connect 3 0 2 0;
#X connect 5 0 3 1;
#X connect 6 0 4 0;
#X connect 7 0 8 0;
#X connect 9 0 20 0;
#X connect 10 0 12 0;
#X connect 12 0 13 0;
#X connect 13 0 14 0;
#X connect 14 0 15 0;
#X connect 15 0 16 0;
#X connect 15 2 16 1;
#X connect 17 0 11 0;
#X connect 20 0 22 0;
#X connect 20 1 21 0;
#X connect 21 0 22 0;
#X connect 21 1 3 0;
#X connect 22 0 17 0;
#X restore 30 162 pd generic gui + sgDevice 2;
#X obj 33 571 sdObjExample \$0-instr2 \$0-GLOBAL gInstr;
#X obj 33 641 sdObjExample \$0-instr3 \$0-GLOBAL gInstr;
#X text 202 165 <- latest developements;
#X connect 0 0 2 0;
#X connect 2 0 1 0;
#X connect 3 0 4 0;
#X connect 5 0 6 0;
#X connect 5 0 7 0;
#X connect 8 0 5 0;
#X connect 15 0 17 0;
#X connect 16 0 15 0;
#X connect 17 0 18 0;
#X connect 17 2 18 1;
