#N canvas 0 0 798 854 10;
#X obj 46 29 nbx 2 14 0 1 0 0 \$0-mode \$0-mode_rcv empty 0 -8 0 10
#fcfcfc #000000 #000000 0 256;
#X text 10 27 mode:;
#X obj 293 267 sdPackFilter mode;
#X obj 293 290 sdUnPack;
#X obj 299 393 s \$0-mode_rcv;
#X obj 436 32 inlet;
#X obj 246 212 t a a;
#X obj 246 235 outlet;
#X obj 12 58 tgl 10 0 \$0-print_msgs empty empty 17 7 0 10 #fcfcfc
#000000 #000000 0 1;
#X text 23 54 print msgs;
#X obj 304 189 r \$0-print_msgs;
#N canvas 0 30 762 722 print 0;
#X obj 67 163 print;
#X obj 67 139 sdGate;
#X obj 40 114 t a a;
#X obj 35 38 inlet;
#X obj 40 187 outlet;
#X obj 121 30 inlet;
#X connect 1 0 0 0;
#X connect 2 0 4 0;
#X connect 2 1 1 0;
#X connect 3 0 2 0;
#X connect 5 0 1 1;
#X coords 0 722 1 721 27 19 0;
#X restore 246 189 pd print;
#X obj 100 31 vsl 15 32 0 1 0 0 empty \$0-ana0_rcv empty 0 -9 0 10
#fcfcfc #000000 #000000 0 1;
#X obj 574 224 sdPackFilter analog;
#X obj 574 247 sdUnEvent value index;
#X obj 573 342 send;
#X obj 635 294 sdReplace \$0;
#X msg 635 271 list %0-ana\$1_rcv;
#X obj 120 31 vsl 15 32 0 1 0 0 empty \$0-ana1_rcv empty 0 -9 0 10
#fcfcfc #000000 #000000 0 1;
#X obj 140 31 vsl 15 32 0 1 0 0 empty \$0-ana2_rcv empty 0 -9 0 10
#fcfcfc #000000 #000000 0 1;
#X obj 160 31 vsl 15 32 0 1 0 0 empty \$0-ana3_rcv empty 0 -9 0 10
#fcfcfc #000000 #000000 0 1;
#X obj 180 31 vsl 15 32 0 1 0 0 empty \$0-ana4_rcv empty 0 -9 0 10
#fcfcfc #000000 #000000 0 1;
#X obj 200 31 vsl 15 32 0 1 0 0 empty \$0-ana5_rcv empty 0 -9 0 10
#fcfcfc #000000 #000000 0 1;
#X obj 12 46 tgl 10 0 \$0-print_raw empty empty 17 7 0 10 #fcfcfc #000000
#000000 0 1;
#X text 23 42 print raw;
#N canvas 0 30 762 722 print 0;
#X obj 67 163 print;
#X obj 67 139 sdGate;
#X obj 40 114 t a a;
#X obj 35 38 inlet;
#X obj 40 187 outlet;
#X obj 121 30 inlet;
#X connect 1 0 0 0;
#X connect 2 0 4 0;
#X connect 2 1 1 0;
#X connect 3 0 2 0;
#X connect 5 0 1 1;
#X coords 0 722 1 721 27 19 0;
#X restore 520 145 pd print;
#X obj 578 145 r \$0-print_raw;
#X obj 520 168 t a a;
#X obj 488 215 outlet;
#X obj 401 91 sgDeviceModes_obj \$1 \$2 \$3;
#X obj 291 440 r \$0-mode;
#X obj 292 486 sdPackFromHuman;
#X msg 291 463 list set ( mode ( \$1 ) );
#X msg 282 332 set \$1;
#X obj 292 509 s \$1;
#X obj 389 314 sdUnPack;
#X obj 293 234 sdObjTrackAll;
#X obj 389 291 sdPackFilter mode_count;
#X msg 388 361 range 0 \$1;
#X obj 389 337 - 1;
#X connect 2 0 3 0;
#X connect 2 1 37 0;
#X connect 3 0 33 0;
#X connect 5 0 29 0;
#X connect 6 0 7 0;
#X connect 6 1 36 0;
#X connect 10 0 11 1;
#X connect 11 0 6 0;
#X connect 13 0 14 0;
#X connect 14 0 15 0;
#X connect 14 1 17 0;
#X connect 16 0 15 1;
#X connect 17 0 16 0;
#X connect 25 0 27 0;
#X connect 26 0 25 1;
#X connect 27 0 28 0;
#X connect 27 1 13 0;
#X connect 29 0 11 0;
#X connect 29 1 25 0;
#X connect 30 0 32 0;
#X connect 31 0 34 0;
#X connect 32 0 31 0;
#X connect 33 0 4 0;
#X connect 35 0 39 0;
#X connect 36 0 2 0;
#X connect 37 0 35 0;
#X connect 38 0 4 0;
#X connect 39 0 38 0;
#X coords 0 -1 1 1 210 60 1 10 10;
