#N canvas 0 30 750 854 10;
#X obj 162 114 midiin;
#X obj 162 144 sgDevice;
#X obj 125 237 route sgDevice.analog;
#X obj 130 191 list trim;
#X obj 125 260 unpack f s f f s f f;
#X obj 50 414 vsl 15 128 0 1 0 0 empty empty empty 0 -9 0 10 -262144
-1 -1 11681 1;
#X floatatom 50 550 5 0 0 0 - - -;
#X obj 197 285 pack f f;
#X obj 148 343 route 0 1 2 3 4 5;
#X obj 48 668 throw~ out, f 7;
#X obj 439 728 catch~ out;
#X obj 439 797 dac~;
#X obj 439 774 hip~ 1;
#X obj 439 751 *~;
#X obj 511 728 pack 0 50;
#X obj 511 751 line~;
#X obj 511 656 vsl 15 64 0 1 0 0 empty empty volume 0 -9 0 10 -262144
-1 -1 400 1;
#X floatatom 48 621 5 0 0 0 - - -;
#N canvas 0 30 750 854 osc~ 0;
#X obj 50 123 osc~;
#X obj 50 74 pack 0 50;
#X obj 50 97 line~;
#X obj 56 22 inlet;
#X obj 50 279 outlet~;
#X obj 59 49 mtof;
#X obj 50 169 clip~ -1 1;
#X obj 50 146 *~ 50;
#X obj 50 192 lop~ 200;
#X obj 103 103 tgl 15 0 empty empty empty 17 7 0 10 -262144 -1 -1 1
1;
#X obj 163 129 pack 0 50;
#X obj 163 152 line~;
#X obj 50 215 *~;
#X connect 0 0 7 0;
#X connect 1 0 2 0;
#X connect 2 0 0 0;
#X connect 3 0 5 0;
#X connect 5 0 1 0;
#X connect 6 0 8 0;
#X connect 7 0 6 0;
#X connect 8 0 12 0;
#X connect 9 0 10 0;
#X connect 10 0 11 0;
#X connect 11 0 12 1;
#X connect 12 0 4 0;
#X coords 0 -1 1 1 20 20 1 100 100;
#X restore 48 644 pd osc~;
#X obj 100 414 vsl 15 128 0 1 0 0 empty empty empty 0 -9 0 10 -262144
-1 -1 12153 1;
#X floatatom 100 550 5 0 0 0 - - -;
#X obj 264 237 route sgDevice.meta;
#X obj 264 261 unpack f s f f s f f;
#X obj 397 262 unpack f s f f s f f;
#X obj 397 238 route sgDevice.trigger;
#X obj 459 287 pack f f;
#X obj 416 339 route 0 1 2 3 4 5;
#X obj 416 365 bng 15 250 50 0 empty empty empty 17 7 0 10 -262144
-1 -1;
#X obj 436 365 bng 15 250 50 0 empty empty empty 17 7 0 10 -262144
-1 -1;
#X obj 456 365 bng 15 250 50 0 empty empty empty 17 7 0 10 -262144
-1 -1;
#X obj 476 365 bng 15 250 50 0 empty empty empty 17 7 0 10 -262144
-1 -1;
#X obj 496 365 bng 15 250 50 0 empty empty empty 17 7 0 10 -262144
-1 -1;
#X obj 516 365 bng 15 250 50 0 empty empty empty 17 7 0 10 -262144
-1 -1;
#X obj 325 291 pack f f;
#X obj 282 343 route 0 1 2;
#X obj 282 370 bng 15 250 50 0 empty empty empty 17 7 0 10 -262144
-1 -1;
#X obj 302 370 bng 15 250 50 0 empty empty empty 17 7 0 10 -262144
-1 -1;
#X obj 322 370 bng 15 250 50 0 empty empty empty 17 7 0 10 -262144
-1 -1;
#X obj 544 262 unpack f s f f s f f;
#X obj 606 287 pack f f;
#X obj 563 339 route 0 1 2 3 4 5;
#X obj 544 238 route sgDevice.switch;
#X obj 563 364 tgl 15 0 empty empty empty 17 7 0 10 -262144 -1 -1 0
1;
#X obj 583 364 tgl 15 0 empty empty empty 17 7 0 10 -262144 -1 -1 0
1;
#X obj 603 364 tgl 15 0 empty empty empty 17 7 0 10 -262144 -1 -1 0
1;
#X obj 623 364 tgl 15 0 empty empty empty 17 7 0 10 -262144 -1 -1 0
1;
#X obj 643 364 tgl 15 0 empty empty empty 17 7 0 10 -262144 -1 -1 0
1;
#X obj 663 364 tgl 15 0 empty empty empty 17 7 0 10 -262144 -1 -1 0
1;
#X obj 150 414 vsl 15 128 0 1 0 0 empty empty empty 0 -9 0 10 -262144
-1 -1 11880 1;
#X floatatom 150 550 5 0 0 0 - - -;
#X obj 48 572 expr $f1*120, f 6;
#X obj 98 668 throw~ out, f 7;
#X floatatom 98 621 5 0 0 0 - - -;
#N canvas 0 30 750 854 osc~ 0;
#X obj 50 123 osc~;
#X obj 50 74 pack 0 50;
#X obj 50 97 line~;
#X obj 56 22 inlet;
#X obj 50 279 outlet~;
#X obj 59 49 mtof;
#X obj 50 169 clip~ -1 1;
#X obj 50 146 *~ 50;
#X obj 50 192 lop~ 200;
#X obj 103 103 tgl 15 0 empty empty empty 17 7 0 10 -262144 -1 -1 1
1;
#X obj 163 129 pack 0 50;
#X obj 163 152 line~;
#X obj 50 215 *~;
#X connect 0 0 7 0;
#X connect 1 0 2 0;
#X connect 2 0 0 0;
#X connect 3 0 5 0;
#X connect 5 0 1 0;
#X connect 6 0 8 0;
#X connect 7 0 6 0;
#X connect 8 0 12 0;
#X connect 9 0 10 0;
#X connect 10 0 11 0;
#X connect 11 0 12 1;
#X connect 12 0 4 0;
#X coords 0 -1 1 1 20 20 1 100 100;
#X restore 98 644 pd osc~;
#X obj 98 572 expr $f1*120, f 6;
#X obj 148 668 throw~ out, f 7;
#X floatatom 148 621 5 0 0 0 - - -;
#N canvas 0 30 750 854 osc~ 0;
#X obj 50 123 osc~;
#X obj 50 74 pack 0 50;
#X obj 50 97 line~;
#X obj 56 22 inlet;
#X obj 50 279 outlet~;
#X obj 59 49 mtof;
#X obj 50 169 clip~ -1 1;
#X obj 50 146 *~ 50;
#X obj 50 192 lop~ 200;
#X obj 103 103 tgl 15 0 empty empty empty 17 7 0 10 -262144 -1 -1 1
1;
#X obj 163 129 pack 0 50;
#X obj 163 152 line~;
#X obj 50 215 *~;
#X connect 0 0 7 0;
#X connect 1 0 2 0;
#X connect 2 0 0 0;
#X connect 3 0 5 0;
#X connect 5 0 1 0;
#X connect 6 0 8 0;
#X connect 7 0 6 0;
#X connect 8 0 12 0;
#X connect 9 0 10 0;
#X connect 10 0 11 0;
#X connect 11 0 12 1;
#X connect 12 0 4 0;
#X coords 0 -1 1 1 20 20 1 100 100;
#X restore 148 644 pd osc~;
#X obj 148 572 expr $f1*120, f 6;
#X obj 200 414 vsl 15 128 0 1 0 0 empty empty empty 0 -9 0 10 -262144
-1 -1 12253 1;
#X floatatom 200 550 5 0 0 0 - - -;
#X obj 198 668 throw~ out, f 7;
#X floatatom 198 621 5 0 0 0 - - -;
#N canvas 0 30 750 854 osc~ 0;
#X obj 50 123 osc~;
#X obj 50 74 pack 0 50;
#X obj 50 97 line~;
#X obj 56 22 inlet;
#X obj 50 279 outlet~;
#X obj 59 49 mtof;
#X obj 50 169 clip~ -1 1;
#X obj 50 146 *~ 50;
#X obj 50 192 lop~ 200;
#X obj 103 103 tgl 15 0 empty empty empty 17 7 0 10 -262144 -1 -1 1
1;
#X obj 163 129 pack 0 50;
#X obj 163 152 line~;
#X obj 50 215 *~;
#X connect 0 0 7 0;
#X connect 1 0 2 0;
#X connect 2 0 0 0;
#X connect 3 0 5 0;
#X connect 5 0 1 0;
#X connect 6 0 8 0;
#X connect 7 0 6 0;
#X connect 8 0 12 0;
#X connect 9 0 10 0;
#X connect 10 0 11 0;
#X connect 11 0 12 1;
#X connect 12 0 4 0;
#X coords 0 -1 1 1 20 20 1 100 100;
#X restore 198 644 pd osc~;
#X obj 250 414 vsl 15 128 0 1 0 0 empty empty empty 0 -9 0 10 -262144
-1 -1 12277 1;
#X floatatom 250 550 5 0 0 0 - - -;
#X obj 300 414 vsl 15 128 0 1 0 0 empty empty empty 0 -9 0 10 -262144
-1 -1 12079 1;
#X floatatom 300 550 5 0 0 0 - - -;
#X obj 198 572 expr $f1*120, f 6;
#X obj 248 668 throw~ out, f 7;
#X floatatom 248 621 5 0 0 0 - - -;
#N canvas 0 30 750 854 osc~ 0;
#X obj 50 123 osc~;
#X obj 50 74 pack 0 50;
#X obj 50 97 line~;
#X obj 56 22 inlet;
#X obj 50 279 outlet~;
#X obj 59 49 mtof;
#X obj 50 169 clip~ -1 1;
#X obj 50 146 *~ 50;
#X obj 50 192 lop~ 200;
#X obj 103 103 tgl 15 0 empty empty empty 17 7 0 10 -262144 -1 -1 1
1;
#X obj 163 129 pack 0 50;
#X obj 163 152 line~;
#X obj 50 215 *~;
#X connect 0 0 7 0;
#X connect 1 0 2 0;
#X connect 2 0 0 0;
#X connect 3 0 5 0;
#X connect 5 0 1 0;
#X connect 6 0 8 0;
#X connect 7 0 6 0;
#X connect 8 0 12 0;
#X connect 9 0 10 0;
#X connect 10 0 11 0;
#X connect 11 0 12 1;
#X connect 12 0 4 0;
#X coords 0 -1 1 1 20 20 1 100 100;
#X restore 248 644 pd osc~;
#X obj 248 572 expr $f1*120, f 6;
#X obj 298 668 throw~ out, f 7;
#X floatatom 298 621 5 0 0 0 - - -;
#N canvas 0 30 750 854 osc~ 0;
#X obj 50 123 osc~;
#X obj 50 74 pack 0 50;
#X obj 50 97 line~;
#X obj 56 22 inlet;
#X obj 50 279 outlet~;
#X obj 59 49 mtof;
#X obj 50 169 clip~ -1 1;
#X obj 50 146 *~ 50;
#X obj 50 192 lop~ 200;
#X obj 103 103 tgl 15 0 empty empty empty 17 7 0 10 -262144 -1 -1 1
1;
#X obj 163 129 pack 0 50;
#X obj 163 152 line~;
#X obj 50 215 *~;
#X connect 0 0 7 0;
#X connect 1 0 2 0;
#X connect 2 0 0 0;
#X connect 3 0 5 0;
#X connect 5 0 1 0;
#X connect 6 0 8 0;
#X connect 7 0 6 0;
#X connect 8 0 12 0;
#X connect 9 0 10 0;
#X connect 10 0 11 0;
#X connect 11 0 12 1;
#X connect 12 0 4 0;
#X coords 0 -1 1 1 20 20 1 100 100;
#X restore 298 644 pd osc~;
#X obj 298 572 expr $f1*120, f 6;
#X connect 0 0 1 0;
#X connect 1 0 3 0;
#X connect 2 0 4 0;
#X connect 2 1 21 0;
#X connect 3 0 2 0;
#X connect 4 3 7 0;
#X connect 4 6 7 1;
#X connect 5 0 6 0;
#X connect 6 0 50 0;
#X connect 7 0 8 0;
#X connect 8 0 5 0;
#X connect 8 1 19 0;
#X connect 8 2 48 0;
#X connect 8 3 59 0;
#X connect 8 4 64 0;
#X connect 8 5 66 0;
#X connect 10 0 13 0;
#X connect 12 0 11 0;
#X connect 13 0 12 0;
#X connect 14 0 15 0;
#X connect 15 0 13 1;
#X connect 16 0 14 0;
#X connect 17 0 18 0;
#X connect 18 0 9 0;
#X connect 19 0 20 0;
#X connect 20 0 54 0;
#X connect 21 0 22 0;
#X connect 21 1 24 0;
#X connect 22 3 33 0;
#X connect 22 6 33 1;
#X connect 23 3 25 0;
#X connect 23 6 25 1;
#X connect 24 0 23 0;
#X connect 24 1 41 0;
#X connect 25 0 26 0;
#X connect 26 0 27 0;
#X connect 26 1 28 0;
#X connect 26 2 29 0;
#X connect 26 3 30 0;
#X connect 26 4 31 0;
#X connect 26 5 32 0;
#X connect 33 0 34 0;
#X connect 34 0 35 0;
#X connect 34 1 36 0;
#X connect 34 2 37 0;
#X connect 38 3 39 0;
#X connect 38 6 39 1;
#X connect 39 0 40 0;
#X connect 40 0 42 0;
#X connect 40 1 43 0;
#X connect 40 2 44 0;
#X connect 40 3 45 0;
#X connect 40 4 46 0;
#X connect 40 5 47 0;
#X connect 41 0 38 0;
#X connect 48 0 49 0;
#X connect 49 0 58 0;
#X connect 50 0 17 0;
#X connect 52 0 53 0;
#X connect 53 0 51 0;
#X connect 54 0 52 0;
#X connect 56 0 57 0;
#X connect 57 0 55 0;
#X connect 58 0 56 0;
#X connect 59 0 60 0;
#X connect 60 0 68 0;
#X connect 62 0 63 0;
#X connect 63 0 61 0;
#X connect 64 0 65 0;
#X connect 65 0 72 0;
#X connect 66 0 67 0;
#X connect 67 0 76 0;
#X connect 68 0 62 0;
#X connect 70 0 71 0;
#X connect 71 0 69 0;
#X connect 72 0 70 0;
#X connect 74 0 75 0;
#X connect 75 0 73 0;
#X connect 76 0 74 0;
