#N canvas 0 30 750 854 10;
#X obj 162 114 midiin;
#X obj 162 144 sgDevice;
#X obj 125 237 route sgDevice.analog;
#X obj 130 191 list trim;
#X obj 125 260 unpack f s f f s f f;
#X obj 110 404 vsl 15 128 0 1 0 0 empty empty empty 0 -9 0 10 -262144
-1 -1 8127 1;
#X floatatom 110 540 5 0 0 0 - - -;
#X obj 197 285 pack f f;
#X obj 148 343 route 0 1 2 3 4 5;
#X obj 110 661 throw~ out, f 7;
#X obj 439 728 catch~ out;
#X obj 439 797 dac~;
#X obj 439 774 hip~ 1;
#X obj 439 751 *~;
#X obj 511 728 pack 0 50;
#X obj 511 751 line~;
#X obj 511 656 vsl 15 64 0 1 0 0 empty empty volume 0 -9 0 10 -262144
-1 -1 0 1;
#X floatatom 110 614 5 0 0 0 - - -;
#N canvas 0 30 750 854 osc~ 0;
#X obj 50 121 osc~;
#X obj 50 74 pack 0 50;
#X obj 50 97 line~;
#X obj 56 22 inlet;
#X obj 50 144 outlet~;
#X obj 59 49 mtof;
#X connect 0 0 4 0;
#X connect 1 0 2 0;
#X connect 2 0 0 0;
#X connect 3 0 5 0;
#X connect 5 0 1 0;
#X restore 110 637 pd osc~;
#X obj 160 404 vsl 15 128 0 1 0 0 empty empty empty 0 -9 0 10 -262144
-1 -1 6064 1;
#X floatatom 160 540 5 0 0 0 - - -;
#X obj 160 661 throw~ out, f 7;
#X floatatom 160 614 5 0 0 0 - - -;
#N canvas 0 30 750 854 osc~ 0;
#X obj 50 121 osc~;
#X obj 50 74 pack 0 50;
#X obj 50 97 line~;
#X obj 56 22 inlet;
#X obj 50 144 outlet~;
#X obj 69 49 mtof;
#X connect 0 0 4 0;
#X connect 1 0 2 0;
#X connect 2 0 0 0;
#X connect 3 0 5 0;
#X connect 5 0 1 0;
#X restore 160 637 pd osc~;
#X obj 264 237 route sgDevice.meta;
#X obj 264 261 unpack f s f f s f f;
#X obj 160 562 expr $f1*120+20, f 6;
#X obj 110 562 expr $f1*120+20, f 6;
#X obj 397 262 unpack f s f f s f f;
#X obj 397 238 route sgDevice.trigger;
#X obj 459 287 pack f f;
#X obj 416 339 route 0 1 2 3 4 5;
#X obj 416 365 bng 15 250 50 0 empty empty empty 17 7 0 10 -262144
-1 -1;
#X obj 436 365 bng 15 250 50 0 empty empty empty 17 7 0 10 -262144
-1 -1;
#X obj 456 365 bng 15 250 50 0 empty empty empty 17 7 0 10 -262144
-1 -1;
#X obj 476 365 bng 15 250 50 0 empty empty empty 17 7 0 10 -262144
-1 -1;
#X obj 496 365 bng 15 250 50 0 empty empty empty 17 7 0 10 -262144
-1 -1;
#X obj 516 365 bng 15 250 50 0 empty empty empty 17 7 0 10 -262144
-1 -1;
#X obj 325 291 pack f f;
#X obj 282 343 route 0 1 2;
#X obj 282 370 bng 15 250 50 0 empty empty empty 17 7 0 10 -262144
-1 -1;
#X obj 302 370 bng 15 250 50 0 empty empty empty 17 7 0 10 -262144
-1 -1;
#X obj 322 370 bng 15 250 50 0 empty empty empty 17 7 0 10 -262144
-1 -1;
#X obj 544 262 unpack f s f f s f f;
#X obj 606 287 pack f f;
#X obj 563 339 route 0 1 2 3 4 5;
#X obj 544 238 route sgDevice.switch;
#X obj 563 364 tgl 15 0 empty empty empty 17 7 0 10 -262144 -1 -1 1
1;
#X obj 583 364 tgl 15 0 empty empty empty 17 7 0 10 -262144 -1 -1 1
1;
#X obj 603 364 tgl 15 0 empty empty empty 17 7 0 10 -262144 -1 -1 1
1;
#X obj 623 364 tgl 15 0 empty empty empty 17 7 0 10 -262144 -1 -1 1
1;
#X obj 643 364 tgl 15 0 empty empty empty 17 7 0 10 -262144 -1 -1 1
1;
#X obj 663 364 tgl 15 0 empty empty empty 17 7 0 10 -262144 -1 -1 1
1;
#X obj 210 404 vsl 15 128 0 1 0 0 empty empty empty 0 -9 0 10 -262144
-1 -1 5542 1;
#X floatatom 210 540 5 0 0 0 - - -;
#X obj 210 661 throw~ out, f 7;
#X floatatom 210 614 5 0 0 0 - - -;
#N canvas 0 30 750 854 osc~ 0;
#X obj 50 121 osc~;
#X obj 50 74 pack 0 50;
#X obj 50 97 line~;
#X obj 56 22 inlet;
#X obj 50 144 outlet~;
#X obj 69 49 mtof;
#X connect 0 0 4 0;
#X connect 1 0 2 0;
#X connect 2 0 0 0;
#X connect 3 0 5 0;
#X connect 5 0 1 0;
#X restore 210 637 pd osc~;
#X obj 210 562 expr $f1*120+20, f 6;
#X connect 0 0 1 0;
#X connect 1 0 3 0;
#X connect 2 0 4 0;
#X connect 2 1 24 0;
#X connect 3 0 2 0;
#X connect 4 3 7 0;
#X connect 4 6 7 1;
#X connect 5 0 6 0;
#X connect 6 0 27 0;
#X connect 7 0 8 0;
#X connect 8 0 5 0;
#X connect 8 1 19 0;
#X connect 8 2 53 0;
#X connect 10 0 13 0;
#X connect 12 0 11 0;
#X connect 13 0 12 0;
#X connect 14 0 15 0;
#X connect 15 0 13 1;
#X connect 16 0 14 0;
#X connect 17 0 18 0;
#X connect 18 0 9 0;
#X connect 19 0 20 0;
#X connect 20 0 26 0;
#X connect 22 0 23 0;
#X connect 23 0 21 0;
#X connect 24 0 25 0;
#X connect 24 1 29 0;
#X connect 25 3 38 0;
#X connect 25 6 38 1;
#X connect 26 0 22 0;
#X connect 27 0 17 0;
#X connect 28 3 30 0;
#X connect 28 6 30 1;
#X connect 29 0 28 0;
#X connect 29 1 46 0;
#X connect 30 0 31 0;
#X connect 31 0 32 0;
#X connect 31 1 33 0;
#X connect 31 2 34 0;
#X connect 31 3 35 0;
#X connect 31 4 36 0;
#X connect 31 5 37 0;
#X connect 38 0 39 0;
#X connect 39 0 40 0;
#X connect 39 1 41 0;
#X connect 39 2 42 0;
#X connect 43 3 44 0;
#X connect 43 6 44 1;
#X connect 44 0 45 0;
#X connect 45 0 47 0;
#X connect 45 1 48 0;
#X connect 45 2 49 0;
#X connect 45 3 50 0;
#X connect 45 4 51 0;
#X connect 45 5 52 0;
#X connect 46 0 43 0;
#X connect 53 0 54 0;
#X connect 54 0 58 0;
#X connect 56 0 57 0;
#X connect 57 0 55 0;
#X connect 58 0 56 0;
